<svg aria-hidden="true" style="position: absolute; width: 0; height: 0; overflow: hidden;" version="1.1" xmlns="http://www.w3.org/2000/svg" xmlns:xlink="http://www.w3.org/1999/xlink">
<defs>
<symbol id="icon-icon-google-play" viewBox="0 0 27 32">
<path fill="#ea4335" style="fill: var(--color1, #ea4335)" d="M12.809 15.295l-12.695 13.299c0.421 1.459 1.745 2.509 3.314 2.509 0.637 0 1.233-0.173 1.744-0.474l-0.016 0.009 14.286-8.136-6.633-7.208z"></path>
<path fill="#fbbc04" style="fill: var(--color2, #fbbc04)" d="M25.647 13.034l-6.177-3.538-6.953 6.102 6.982 6.887 6.13-3.501c1.079-0.573 1.802-1.69 1.802-2.975s-0.723-2.402-1.784-2.967l-0.018-0.009h0.018z"></path>
<path fill="#4285f4" style="fill: var(--color3, #4285f4)" d="M0.114 3.357c-0.078 0.283-0.115 0.576-0.114 0.87v23.499c0 0.294 0.039 0.586 0.114 0.871l13.129-12.962-13.13-12.278z"></path>
<path fill="#34a853" style="fill: var(--color4, #34a853)" d="M12.904 15.976l6.566-6.48-14.266-8.174c-0.507-0.302-1.117-0.481-1.769-0.483h-0.001c-0.002 0-0.004 0-0.006 0-1.568 0-2.892 1.049-3.308 2.483l-0.006 0.024 12.79 12.629z"></path>
</symbol>
</defs>
</svg>
